<svg version="1.2" baseProfile="tiny-ps" xmlns="http://www.w3.org/2000/svg" viewBox="0 0 1273 1618" width="1273" height="1618">
	<title>AstraZeneca-svg</title>
	<style>
		tspan { white-space:pre }
		.shp0 { fill: #efab00 } 
	</style>
	<path id="Layer" fill-rule="evenodd" class="shp0" d="M1271.73 845.12C1272.11 848.37 1272.32 851.69 1272.49 854.94C1272.52 858.3 1272.42 861.69 1272.14 865.05C1271.87 868.54 1271.59 872.07 1270.86 875.5C1269.27 882.9 1268.1 890.48 1265.3 897.5C1258.31 914.73 1250.08 931.45 1241.71 948.05C1239.12 953.11 1235.8 957.74 1232.52 962.34C1228.95 967.43 1225.19 972.41 1221.11 977.08C1212.12 987.36 1203.3 997.77 1193.37 1007.15C1172.56 1026.87 1151.29 1046.25 1128.95 1064.31C1102.88 1085.38 1075.84 1105.24 1048.35 1124.45C984.04 1169.43 918.55 1212.64 853.64 1256.69L960.53 1319.83C986.04 1334.89 1011.29 1350.49 1036.63 1365.78C1040.33 1368.03 1044.03 1370.39 1047.59 1372.91C1051.22 1375.47 1054.82 1378.14 1058.17 1381.11C1062.01 1384.5 1065.64 1388.27 1069.2 1392.01C1071.04 1394.02 1072.73 1396.2 1074.32 1398.38C1075.91 1400.56 1077.4 1402.88 1078.75 1405.23C1080.1 1407.58 1081.34 1410.04 1082.27 1412.56C1083.24 1415.09 1084 1417.68 1084.56 1420.28C1085.04 1422.94 1085.39 1425.68 1085.39 1428.41C1085.39 1431.21 1085.11 1434.09 1084.49 1436.82C1083.83 1439.83 1082.9 1442.8 1081.65 1445.57C1080.23 1448.72 1078.54 1451.77 1076.5 1454.5C1074.15 1457.75 1071.49 1460.8 1068.58 1463.53C1065.16 1466.78 1061.35 1469.69 1057.52 1472.42C1053.16 1475.54 1048.6 1478.48 1043.96 1481.18C1038.84 1484.19 1033.69 1487.23 1028.23 1489.55C1003.92 1500.03 979.16 1509.58 954.65 1519.58C923.53 1532.32 890.47 1539.89 857.97 1548.44C811.98 1560.51 765.68 1571.28 719.24 1581.45C679.86 1590.06 640.37 1598.44 600.57 1604.7C566.47 1610.06 532.1 1613.56 497.7 1616.26C487.77 1617.05 477.71 1616.5 467.82 1615.15C447.63 1612.42 427.61 1608.4 407.73 1604.01C402.19 1602.8 396.94 1600.48 391.72 1598.3C386.46 1596.12 381.31 1593.77 376.33 1591.07C371.42 1588.37 366.58 1585.46 362.08 1582.14C357.59 1578.85 353.3 1575.25 349.39 1571.31C345.49 1567.37 342.17 1562.9 338.88 1558.4C337.19 1556.16 335.84 1553.63 334.52 1551.14C333.21 1548.58 332 1545.95 330.93 1543.28C329.86 1540.52 328.85 1537.68 328.09 1534.84C327.26 1531.83 326.61 1528.79 326.12 1525.71C325.6 1522.56 325.22 1519.31 325.05 1516.05C324.84 1512.59 325.02 1509.13 324.95 1505.64C324.95 1504.32 324.7 1503.01 324.77 1501.69C324.98 1497.82 325.12 1493.91 325.78 1490.14C326.88 1483.84 328.16 1477.58 330.13 1471.49C332.86 1462.8 335.98 1454.22 339.85 1445.99C344.93 1435.16 350.6 1424.47 357.07 1414.36C365.3 1401.39 374.12 1388.76 383.8 1376.82C395.9 1361.91 408.73 1347.48 422.35 1333.88C439.12 1317.17 456.31 1300.8 474.81 1286.03C523.22 1247.38 573.6 1211.22 623.04 1173.79L480.69 1093.76C417.37 1058.15 353.3 1023.86 289.19 989.68C225.43 955.67 161.12 922.66 97.04 889.16C94.45 887.82 91.89 886.5 89.33 885.15C89.09 885.01 88.81 884.8 88.54 884.74C88.36 884.67 88.88 884.98 89.09 885.05C90.71 885.95 95.66 888.51 94 887.68C89.37 885.25 84.56 882.97 80 880.31C69.59 874.22 59.11 868.02 48.98 861.38C43.17 857.57 37.64 853.35 32.28 848.92C27.06 844.63 22.15 840 17.34 835.26C15.13 833.04 13.16 830.62 11.22 828.13C9.46 825.85 7.76 823.46 6.31 820.93C5 818.61 3.85 816.19 2.99 813.67C2.19 811.35 1.47 808.93 1.3 806.47C0.98 801.59 1.05 796.64 1.57 791.76C2.16 786.47 3.3 781.21 4.62 776.06C6.03 770.59 7.8 765.19 9.73 759.86C11.74 754.29 13.81 748.69 16.44 743.39C26.61 723.01 37.02 702.74 48.11 682.84C54.51 671.46 61.43 660.35 68.83 649.59C98.46 606.62 127.26 562.92 159.28 521.61C231.38 428.5 306 337.39 380.96 246.57C399.81 223.66 419.97 201.73 440.78 180.52C479.79 140.72 519.69 101.76 560.32 63.57C570.17 54.29 581.24 46.37 592.06 38.2C598.25 33.57 604.72 29.28 611.25 25.16C617.44 21.28 623.7 17.55 630.24 14.33C636.08 11.46 642.13 8.93 648.35 6.86C654.13 4.92 660.04 3.43 666.02 2.25C671.59 1.15 677.26 0.46 682.93 0.04C688.22 -0.34 693.62 -0.24 698.94 -0.13C702.05 -0.06 705.2 0.14 708.31 0.59C712.46 1.18 716.65 1.8 720.69 2.95C725.57 4.33 730.34 6.16 735.04 8.1C737.74 9.21 740.3 10.63 742.82 12.08C745.52 13.64 748.18 15.37 750.74 17.24C753.51 19.28 756.2 21.39 758.73 23.67C761.53 26.2 764.23 28.83 766.75 31.6C769.55 34.61 772.18 37.75 774.67 41.04C777.4 44.67 780.06 48.41 782.45 52.25C785.11 56.51 787.64 60.87 789.92 65.33C792.44 70.31 794.79 75.36 796.94 80.49C799.32 86.16 801.47 91.94 803.44 97.75C805.65 104.19 807.9 110.66 809.38 117.33C815.92 146.43 822.94 175.5 827.57 204.98C833.52 242.76 838.08 280.79 841.06 318.92C845.31 373.69 847.52 428.63 849.15 483.54C850.22 520.53 849.15 557.55 849.15 594.58L1043.72 662.19C1072.59 672.22 1099.67 686.82 1127.68 699.14C1150.84 709.35 1172.35 723.12 1193.93 736.37C1203.82 742.42 1212.81 749.76 1221.87 756.96C1225.88 760.14 1229.54 763.77 1233.1 767.44C1236.29 770.73 1239.36 774.19 1242.03 777.89C1246.62 784.22 1250.98 790.69 1254.89 797.44C1258.38 803.56 1261.67 809.9 1264.33 816.43C1266.78 822.59 1268.55 829.03 1270.21 835.46C1271 838.61 1271.38 841.87 1271.73 845.12ZM473.94 408.05C446.45 436.59 419.45 465.62 392.24 494.44L401.88 494.69L431.59 496.97L554.3 517.18L685.8 547.45L674.81 429.36C672.77 407.18 670.97 384.97 668.48 362.82C666.58 345.73 664.16 328.67 661.53 311.65C660.46 304.66 659.14 297.74 657.45 290.92C656.27 286.15 654.68 281.48 652.92 276.91C652.3 275.22 651.26 273.66 650.29 272.14C649.46 270.82 648.49 269.58 647.46 268.4C646.56 267.36 645.55 266.39 644.48 265.53C643.58 264.77 642.55 264.07 641.51 263.49C640.54 262.93 639.47 262.45 638.43 262.14C637.43 261.79 636.39 261.51 635.35 261.48C633.28 261.38 631.24 261.34 629.23 261.69C627.3 262 625.5 262.73 623.7 263.45C622.01 264.14 620.35 264.97 618.79 265.94C616.58 267.33 614.57 268.95 612.53 270.51C609.87 272.55 607.21 274.63 604.72 276.81C597.53 283.07 590.06 289.13 583.35 295.87C546.49 332.9 510.18 370.44 473.94 408.05ZM1024.91 887.23C1025.26 886.09 1025.36 884.84 1025.32 883.56C1025.39 882.35 1025.46 881.14 1025.26 879.96C1024.81 877.61 1024.22 875.22 1023.35 873.01C1022.42 870.76 1021.18 868.58 1019.83 866.54C1018.44 864.46 1016.89 862.42 1015.12 860.62C1011.77 857.19 1008.24 853.98 1004.58 850.93C1001.98 848.79 999.29 846.78 996.38 845.05C971.66 830.38 947.28 815.02 921.83 801.73C895.76 788.13 868.48 776.85 841.82 764.43L830.13 876.92C828.09 896.36 823.01 915.36 818.41 934.32C814.99 948.37 810.7 962.17 806.2 975.87C804.03 982.45 801.33 988.85 798.42 995.15C795.83 1000.79 792.86 1006.29 789.71 1011.62C787.12 1016.01 784.32 1020.3 781.2 1024.35C778.78 1027.53 776.12 1030.58 773.22 1033.34C769.83 1036.56 766.09 1039.5 762.36 1042.34C760.32 1043.9 758.07 1045.18 755.86 1046.42C753.51 1047.74 751.09 1048.95 748.63 1049.95C745.97 1051.09 743.27 1052.06 740.51 1052.82C737.6 1053.65 734.59 1054.35 731.58 1054.8C728.33 1055.32 725.05 1055.63 721.8 1055.7C718.24 1055.83 714.68 1055.77 711.15 1055.45C707.28 1055.11 703.37 1054.48 699.56 1053.69C695.35 1052.82 691.2 1051.75 687.12 1050.44C682.93 1049.09 678.82 1047.53 674.77 1045.77C670.52 1043.86 666.27 1041.93 662.32 1039.5C653.96 1034.49 645.42 1029.57 637.81 1023.48C622.46 1011.13 607.35 998.33 593.55 984.32C577.82 968.33 563.33 951.17 549.32 933.7C533.21 913.59 517.93 892.87 503.27 871.73C472.08 826.57 440.85 781.35 411.77 734.78C386.46 694.26 364.05 652.01 340.2 610.63L339.47 609.04L328.51 582.88L324.22 568L233.97 660.14C200.5 694.3 166.68 728.1 133.38 762.39C129.3 766.58 125.47 771 121.87 775.64C118.76 779.69 116.03 784.01 113.47 788.37C112.19 790.48 111.15 792.77 110.32 795.09C109.53 797.23 108.9 799.45 108.59 801.73C108.28 803.81 108.31 805.92 108.63 807.99C108.9 810 109.56 811.94 110.29 813.77C110.98 815.57 111.98 817.27 112.98 818.89C114.02 820.45 115.06 821.94 116.3 823.32C118.34 825.53 120.56 827.61 122.73 829.62C123.67 830.45 124.77 831.14 125.78 831.9C128.96 834.39 132.04 837.09 135.36 839.44C145.76 846.85 156 854.6 166.89 861.28C224.74 896.71 283.31 930.93 341.54 965.74L599.36 1113.2C619.52 1124.72 639.68 1136.31 659.83 1147.87L802.19 1056.35C826.67 1040.61 851.43 1025.25 875.43 1008.81C910.28 984.97 944.34 959.96 978.78 935.53C988.78 928.44 997.73 919.96 1006.79 911.69C1011.01 907.78 1014.92 903.49 1018.62 899.09C1020.17 897.26 1021.49 895.19 1022.63 893.04C1023.56 891.21 1024.32 889.23 1024.91 887.23ZM858 1314.13C842.48 1304.26 826.95 1294.44 811.49 1284.61L688.78 1367.86C659.8 1387.51 632.62 1409.69 604.51 1430.59L590.85 1442.67L587.74 1446.02L594.48 1445.61L811.18 1428.58C866.61 1424.22 922.14 1420.42 977.61 1416.27C978.61 1416.2 979.65 1416.06 980.65 1415.85C981.38 1415.71 982.07 1415.54 982.72 1415.23C983.21 1415.02 983.66 1414.67 984.07 1414.29C984.35 1414.02 984.66 1413.67 984.76 1413.26C984.97 1412.63 985.04 1412.01 985.04 1411.35C985.08 1411.08 985.04 1410.76 984.87 1410.52C982.14 1406.85 979.44 1403.19 976.36 1399.83C972.56 1395.75 968.58 1391.87 964.36 1388.27C954.82 1380.21 945.17 1372.32 935.08 1365.02C921.04 1354.85 906.51 1345.37 892.03 1335.82C880.82 1328.42 869.38 1321.32 858 1314.13ZM391.47 572.26L390.89 574.37L390.99 579.91L392.24 587.55L394.31 595.48L403.4 622.15L445.62 705.85C454.93 724.33 466.37 741.59 477.54 758.93C496.25 787.99 515.96 816.37 535.18 845.08C549.12 865.91 565.61 884.98 581.48 904.39C590.26 915.15 599.63 925.46 609.11 935.6C613.43 940.2 618.1 944.49 622.87 948.71C627.23 952.55 631.72 956.25 636.43 959.71C640.68 962.83 645.07 965.77 649.63 968.36C653.65 970.65 657.9 972.55 662.15 974.35C664.09 975.15 666.13 975.7 668.2 976.22C670.1 976.7 672.04 977.12 674.05 977.36C675.91 977.6 677.78 977.64 679.65 977.6C681.41 977.53 683.21 977.36 684.97 977.05C686.43 976.77 687.84 976.36 689.23 975.87C690.47 975.42 691.75 974.9 692.89 974.28C694 973.66 695.07 972.93 696.04 972.21C696.97 971.48 697.97 970.68 698.7 969.78C700.19 967.98 701.67 966.12 702.75 964.07C703.89 962 704.65 959.71 705.34 957.47C706.03 955.18 706.48 952.79 706.86 950.41C707.21 948.02 707.45 945.6 707.59 943.21C707.9 938.95 708.24 934.7 708.14 930.41C707.31 896.53 706.58 862.63 704.79 828.79C702.5 785.47 698.91 742.22 695.97 698.93L691.09 696.75L636.36 673.36C608.69 661.53 580.96 649.8 553.27 637.97C511.46 620.15 469.69 602.26 427.92 584.37L411.74 577.17L399.84 572.61L395.24 571.29L393.65 571.05L392.65 571.15L391.96 571.53L391.47 572.26Z" />
</svg>